<svg width="1199" height="134" viewBox="0 0 1199 134" fill="none" xmlns="http://www.w3.org/2000/svg">
<path d="M1198.06 132.191H1181.02L1112.49 28.2731V132.191H1095.46V1.49792H1112.49L1181.02 105.228V1.49792H1198.06V132.191Z" fill="black" style="fill:black;fill-opacity:1;"/>
<path d="M1018.66 133.502C1006.55 133.502 995.507 130.693 985.521 125.076C975.535 119.334 967.608 111.407 961.741 101.296C955.999 91.0607 953.128 79.5767 953.128 66.8444C953.128 54.1121 955.999 42.6905 961.741 32.5796C967.608 22.3439 975.535 14.4174 985.521 8.80023C995.507 3.05823 1006.55 0.187225 1018.66 0.187225C1030.9 0.187225 1042 3.05823 1051.99 8.80023C1061.98 14.4174 1069.84 22.2815 1075.58 32.3924C1081.32 42.5033 1084.2 53.9873 1084.2 66.8444C1084.2 79.7015 1081.32 91.1855 1075.58 101.296C1069.84 111.407 1061.98 119.334 1051.99 125.076C1042 130.693 1030.9 133.502 1018.66 133.502ZM1018.66 118.71C1027.77 118.71 1035.95 116.588 1043.19 112.344C1050.56 108.099 1056.3 102.045 1060.42 94.1813C1064.66 86.3173 1066.78 77.205 1066.78 66.8444C1066.78 56.359 1064.66 47.2467 1060.42 39.5075C1056.3 31.6434 1050.62 25.5894 1043.38 21.3453C1036.14 17.1012 1027.9 14.9791 1018.66 14.9791C1009.42 14.9791 1001.19 17.1012 993.946 21.3453C986.707 25.5894 980.965 31.6434 976.72 39.5075C972.601 47.2467 970.542 56.359 970.542 66.8444C970.542 77.205 972.601 86.3173 976.72 94.1813C980.965 102.045 986.707 108.099 993.946 112.344C1001.31 116.588 1009.55 118.71 1018.66 118.71Z" fill="black" style="fill:black;fill-opacity:1;"/>
<path d="M914.911 1.68515V15.5409H879.335V132.191H862.297V15.5409H826.534V1.68515H914.911Z" fill="black" style="fill:black;fill-opacity:1;"/>
<path d="M796.795 103.169H739.874L729.389 132.191H711.414L758.598 2.43411H778.258L825.256 132.191H807.281L796.795 103.169ZM791.927 89.3131L768.335 23.4049L744.743 89.3131H791.927Z" fill="black" style="fill:black;fill-opacity:1;"/>
<path d="M651.929 15.5409V59.1676H699.488V73.2105H651.929V118.148H705.105V132.191H634.89V1.49792H705.105V15.5409H651.929Z" fill="black" style="fill:black;fill-opacity:1;"/>
<path d="M600.925 132.191L569.844 78.8277H549.247V132.191H532.208V1.68515H574.337C584.199 1.68515 592.5 3.37031 599.24 6.74062C606.106 10.1109 611.223 14.6671 614.594 20.4091C617.964 26.1511 619.649 32.7045 619.649 40.0692C619.649 49.0567 617.028 56.9831 611.785 63.8486C606.667 70.714 598.928 75.2702 588.567 77.517L621.334 132.191H600.925ZM549.247 65.1593H574.337C583.574 65.1593 590.502 62.9124 595.121 58.4186C599.739 53.8001 602.049 47.6836 602.049 40.0692C602.049 32.33 599.739 26.3383 595.121 22.0942C590.627 17.8501 583.699 15.7281 574.337 15.7281H549.247V65.1593Z" fill="black" style="fill:black;fill-opacity:1;"/>
<path d="M392.442 66.8444C392.442 54.1121 395.313 42.6906 401.055 32.5796C406.797 22.3439 414.598 14.355 424.46 8.61301C434.446 2.871 445.493 0 457.601 0C471.831 0 484.251 3.43272 494.862 10.2982C505.472 17.1636 513.211 26.9 518.079 39.5075H497.67C494.05 31.6434 488.808 25.5894 481.942 21.3453C475.201 17.1012 467.088 14.9791 457.601 14.9791C448.489 14.9791 440.313 17.1012 433.073 21.3453C425.833 25.5894 420.153 31.6434 416.034 39.5075C411.915 47.2467 409.855 56.359 409.855 66.8444C409.855 77.205 411.915 86.3173 416.034 94.1814C420.153 101.921 425.833 107.912 433.073 112.156C440.313 116.4 448.489 118.522 457.601 118.522C467.088 118.522 475.201 116.463 481.942 112.344C488.808 108.099 494.05 102.045 497.67 94.1814H518.079C513.211 106.664 505.472 116.338 494.862 123.203C484.251 129.944 471.831 133.314 457.601 133.314C445.493 133.314 434.446 130.506 424.46 124.889C414.598 119.147 406.797 111.22 401.055 101.109C395.313 90.9983 392.442 79.5767 392.442 66.8444Z" fill="black" style="fill:black;fill-opacity:1;"/>
<path d="M326.159 132.191L295.077 78.8277H274.481V132.191H257.442V1.68515H299.571C309.432 1.68515 317.733 3.37031 324.474 6.74062C331.339 10.1109 336.457 14.6671 339.828 20.4091C343.198 26.1511 344.883 32.7045 344.883 40.0692C344.883 49.0567 342.262 56.9831 337.019 63.8486C331.901 70.714 324.162 75.2702 313.801 77.517L346.568 132.191H326.159ZM274.481 65.1593H299.571C308.808 65.1593 315.736 62.9124 320.355 58.4186C324.973 53.8001 327.282 47.6836 327.282 40.0692C327.282 32.33 324.973 26.3383 320.355 22.0942C315.861 17.8501 308.933 15.7281 299.571 15.7281H274.481V65.1593Z" fill="black" style="fill:black;fill-opacity:1;"/>
<path d="M65.5337 133.502C53.4256 133.502 42.3785 130.693 32.3924 125.076C22.4063 119.334 14.4798 111.407 8.613 101.296C2.871 91.0607 0 79.5767 0 66.8444C0 54.1121 2.871 42.6905 8.613 32.5796C14.4798 22.3439 22.4063 14.4174 32.3924 8.80023C42.3785 3.05823 53.4256 0.187225 65.5337 0.187225C77.7667 0.187225 88.8762 3.05823 98.8623 8.80023C108.848 14.4174 116.712 22.2815 122.454 32.3924C128.196 42.5033 131.067 53.9873 131.067 66.8444C131.067 79.7015 128.196 91.1855 122.454 101.296C116.712 111.407 108.848 119.334 98.8623 125.076C88.8762 130.693 77.7667 133.502 65.5337 133.502ZM65.5337 118.71C74.646 118.71 82.8222 116.588 90.0621 112.344C97.4268 108.099 103.169 102.045 107.288 94.1813C111.532 86.3173 113.654 77.205 113.654 66.8444C113.654 56.359 111.532 47.2467 107.288 39.5075C103.169 31.6434 97.4892 25.5894 90.2493 21.3453C83.0094 17.1012 74.7709 14.9791 65.5337 14.9791C56.2966 14.9791 48.0581 17.1012 40.8182 21.3453C33.5782 25.5894 27.8362 31.6434 23.5921 39.5075C19.4729 47.2467 17.4133 56.359 17.4133 66.8444C17.4133 77.205 19.4729 86.3173 23.5921 94.1813C27.8362 102.045 33.5782 108.099 40.8182 112.344C48.1829 116.588 56.4214 118.71 65.5337 118.71Z" fill="black" style="fill:black;fill-opacity:1;"/>
</svg>
