<svg width="993" height="437" viewBox="0 0 993 437" fill="none" xmlns="http://www.w3.org/2000/svg">
<path d="M87.2535 342.68C87.2535 353.54 83.5087 362.59 76.0191 369.83C68.6544 376.945 57.3576 380.503 42.1288 380.503H17.0388V434.989H0V304.483H42.1288C56.8583 304.483 68.0303 308.041 75.6447 315.156C83.3839 322.271 87.2535 331.446 87.2535 342.68ZM42.1288 366.46C51.6156 366.46 58.6059 364.4 63.0996 360.281C67.5934 356.162 69.8402 350.295 69.8402 342.68C69.8402 326.578 60.6031 318.526 42.1288 318.526H17.0388V366.46H42.1288Z" fill="black" style="fill:black;fill-opacity:1;"/>
<path d="M114 0L113.86 387.056C113.86 398.665 116.669 407.278 122.286 412.895C128.028 418.512 135.955 421.321 146.066 421.321C156.052 421.321 163.853 418.512 169.471 412.895C175.213 407.278 178.084 398.665 178.084 387.056L178.223 0H195.262L195.122 386.869C195.122 397.729 192.938 406.903 188.569 414.393C184.2 421.758 178.271 427.25 170.781 430.87C163.416 434.49 155.116 436.3 145.878 436.3C136.641 436.3 128.278 434.49 120.788 430.87C113.424 427.25 107.557 421.758 103.188 414.393C98.9438 406.903 96.8217 397.729 96.8217 386.869L96.9612 0H114Z" fill="black" style="fill:black;fill-opacity:1;"/>
<path d="M281.029 434.989L249.947 381.626H229.351V434.989H212.312V304.483H254.441C264.302 304.483 272.603 306.169 279.343 309.539C286.209 312.909 291.327 317.465 294.697 323.207C298.067 328.949 299.753 335.503 299.753 342.868C299.753 351.855 297.131 359.781 291.888 366.647C286.771 373.512 279.031 378.069 268.671 380.315L301.438 434.989H281.029ZM229.351 367.958H254.441C263.678 367.958 270.606 365.711 275.224 361.217C279.843 356.598 282.152 350.482 282.152 342.868C282.152 335.128 279.843 329.137 275.224 324.893C270.73 320.648 263.803 318.526 254.441 318.526H229.351V367.958Z" fill="black" style="fill:black;fill-opacity:1;"/>
<path d="M332.032 318.339V361.966H379.591V376.009H332.032V420.946H385.208V434.989H314.993V304.296H385.208V318.339H332.032Z" fill="black" style="fill:black;fill-opacity:1;"/>
<path d="M570.818 305.42V434.989H553.779V338.374L510.714 434.989H498.731L455.479 338.187V434.989H438.44V305.42H456.789L504.722 412.521L552.656 305.42H570.818Z" fill="black" style="fill:black;fill-opacity:1;"/>
<path d="M665.622 405.967H608.702L598.216 434.989H580.241L627.426 305.232H647.086L694.083 434.989H676.108L665.622 405.967ZM660.754 392.112L637.162 326.203L613.57 392.112H660.754Z" fill="black" style="fill:black;fill-opacity:1;"/>
<path d="M802.275 342.306C798.655 334.691 793.412 328.825 786.547 324.705C779.681 320.461 771.692 318.339 762.58 318.339C753.468 318.339 745.229 320.461 737.865 324.705C730.625 328.825 724.883 334.816 720.639 342.68C716.519 350.42 714.46 359.407 714.46 369.643C714.46 379.879 716.519 388.866 720.639 396.605C724.883 404.344 730.625 410.336 737.865 414.58C745.229 418.699 753.468 420.759 762.58 420.759C775.312 420.759 785.798 416.952 794.036 409.338C802.275 401.723 807.081 391.425 808.454 378.443H756.401V364.587H826.616V377.694C825.617 388.429 822.247 398.29 816.505 407.278C810.763 416.141 803.211 423.193 793.849 428.436C784.487 433.554 774.064 436.113 762.58 436.113C750.472 436.113 739.425 433.304 729.439 427.687C719.453 421.945 711.526 414.019 705.659 403.908C699.917 393.797 697.046 382.375 697.046 369.643C697.046 356.91 699.917 345.489 705.659 335.378C711.526 325.142 719.453 317.216 729.439 311.599C739.425 305.857 750.472 302.986 762.58 302.986C776.436 302.986 788.669 306.418 799.279 313.284C810.014 320.149 817.816 329.823 822.684 342.306H802.275Z" fill="black" style="fill:black;fill-opacity:1;"/>
<path d="M866.388 369.643C866.388 356.91 869.259 345.489 875.001 335.378C880.743 325.142 888.545 317.153 898.406 311.411C908.392 305.669 919.439 302.798 931.547 302.798C945.778 302.798 958.198 306.231 968.808 313.096C979.418 319.962 987.158 329.698 992.026 342.306H971.617C967.997 334.442 962.754 328.388 955.889 324.144C949.148 319.9 941.034 317.777 931.547 317.777C922.435 317.777 914.259 319.9 907.019 324.144C899.779 328.388 894.1 334.442 889.98 342.306C885.861 350.045 883.801 359.157 883.801 369.643C883.801 380.003 885.861 389.116 889.98 396.98C894.1 404.719 899.779 410.711 907.019 414.955C914.259 419.199 922.435 421.321 931.547 421.321C941.034 421.321 949.148 419.261 955.889 415.142C962.754 410.898 967.997 404.844 971.617 396.98H992.026C987.158 409.462 979.418 419.136 968.808 426.002C958.198 432.742 945.778 436.113 931.547 436.113C919.439 436.113 908.392 433.304 898.406 427.687C888.545 421.945 880.743 414.019 875.001 403.908C869.259 393.797 866.388 382.375 866.388 369.643Z" fill="black" style="fill:black;fill-opacity:1;"/>
</svg>
