<svg width="1055" height="439" viewBox="0 0 1055 439" fill="none" xmlns="http://www.w3.org/2000/svg">
<path d="M1023.63 132.191H1006.59L938.057 28.2731V132.191H921.018V1.49792H938.057L1006.59 105.228V1.49792H1023.63V132.191Z" fill="black" style="fill:black;fill-opacity:1;"/>
<path d="M844.225 133.502C832.117 133.502 821.07 130.693 811.084 125.076C801.098 119.334 793.171 111.407 787.305 101.296C781.563 91.0607 778.691 79.5767 778.691 66.8444C778.691 54.1121 781.563 42.6905 787.305 32.5796C793.171 22.3439 801.098 14.4174 811.084 8.80023C821.07 3.05823 832.117 0.187225 844.225 0.187225C856.458 0.187225 867.568 3.05823 877.554 8.80023C887.54 14.4174 895.404 22.2815 901.146 32.3924C906.888 42.5033 909.759 53.9873 909.759 66.8444C909.759 79.7015 906.888 91.1855 901.146 101.296C895.404 111.407 887.54 119.334 877.554 125.076C867.568 130.693 856.458 133.502 844.225 133.502ZM844.225 118.71C853.338 118.71 861.514 116.588 868.754 112.344C876.118 108.099 881.86 102.045 885.98 94.1813C890.224 86.3173 892.346 77.205 892.346 66.8444C892.346 56.359 890.224 47.2467 885.98 39.5075C881.86 31.6434 876.181 25.5894 868.941 21.3453C861.701 17.1012 853.462 14.9791 844.225 14.9791C834.988 14.9791 826.75 17.1012 819.51 21.3453C812.27 25.5894 806.528 31.6434 802.284 39.5075C798.164 47.2467 796.105 56.359 796.105 66.8444C796.105 77.205 798.164 86.3173 802.284 94.1813C806.528 102.045 812.27 108.099 819.51 112.344C826.874 116.588 835.113 118.71 844.225 118.71Z" fill="black" style="fill:black;fill-opacity:1;"/>
<path d="M692.934 133.502C684.321 133.502 676.582 132.004 669.717 129.008C662.976 125.887 657.671 121.643 653.801 116.276C649.932 110.783 647.935 104.479 647.81 97.3644H665.972C666.596 103.481 669.093 108.661 673.462 112.905C677.955 117.025 684.446 119.084 692.934 119.084C701.048 119.084 707.414 117.087 712.033 113.093C716.776 108.973 719.148 103.731 719.148 97.3644C719.148 92.3714 717.775 88.3145 715.029 85.1939C712.283 82.0732 708.85 79.7015 704.731 78.0788C700.611 76.456 695.056 74.7085 688.066 72.8361C679.453 70.5892 672.525 68.3423 667.283 66.0955C662.165 63.8486 657.733 60.3535 653.989 55.6101C650.369 50.7418 648.559 44.2509 648.559 36.1372C648.559 29.0221 650.369 22.7184 653.989 17.226C657.609 11.7337 662.664 7.48956 669.155 4.49374C675.771 1.49791 683.323 0 691.811 0C704.044 0 714.03 3.05824 721.769 9.17473C729.633 15.2912 734.065 23.4049 735.063 33.5158H716.339C715.715 28.5228 713.094 24.1539 708.475 20.4091C703.857 16.5395 697.74 14.6047 690.126 14.6047C683.011 14.6047 677.206 16.4771 672.713 20.2218C668.219 23.8418 665.972 28.9597 665.972 35.5755C665.972 40.3189 667.283 44.1885 669.904 47.1843C672.65 50.1801 675.958 52.4894 679.828 54.1121C683.822 55.6101 689.377 57.3576 696.492 59.3548C705.105 61.7265 712.033 64.0982 717.276 66.4699C722.518 68.7168 727.012 72.2744 730.757 77.1426C734.502 81.886 736.374 88.3769 736.374 96.6155C736.374 102.982 734.689 108.973 731.318 114.59C727.948 120.208 722.955 124.764 716.339 128.259C709.724 131.754 701.922 133.502 692.934 133.502Z" fill="black" style="fill:black;fill-opacity:1;"/>
<path d="M629.992 25.2401C627.245 25.2401 624.936 24.3663 623.064 22.6187C621.316 20.7463 620.442 18.4371 620.442 15.6909C620.442 11.9461 621.816 8.76303 624.562 6.14169C627.308 3.39551 630.491 2.02242 634.111 2.02242C636.982 2.02242 639.291 2.8962 641.039 4.64377C642.786 6.39133 643.66 8.70061 643.66 11.5716C643.66 15.3164 642.287 18.5619 639.541 21.3081C636.795 23.9294 633.612 25.2401 629.992 25.2401ZM636.239 36.1909L619.2 132.191H602.161L619.2 36.1909H636.239Z" fill="black" style="fill:black;fill-opacity:1;"/>
<path d="M766.273 25.4086C763.527 25.4086 761.217 24.5348 759.345 22.7872C757.597 20.9148 756.724 18.6056 756.724 15.8594C756.724 12.1146 758.097 8.93152 760.843 6.31017C763.589 3.564 766.772 2.1909 770.392 2.1909C773.263 2.1909 775.572 3.06469 777.32 4.81226C779.067 6.55982 779.941 8.8691 779.941 11.7401C779.941 15.4849 778.568 18.7304 775.822 21.4765C773.076 24.0979 769.893 25.4086 766.273 25.4086ZM772.52 36.3594L755.481 132.359H738.442L755.481 36.3594H772.52Z" fill="black" style="fill:black;fill-opacity:1;"/>
<path d="M1041.27 179.409C1038.53 179.409 1036.22 178.535 1034.34 176.787C1032.6 174.915 1031.72 172.606 1031.72 169.859C1031.72 166.115 1033.1 162.932 1035.84 160.31C1038.59 157.564 1041.77 156.191 1045.39 156.191C1048.26 156.191 1050.57 157.065 1052.32 158.812C1054.07 160.56 1054.94 162.869 1054.94 165.74C1054.94 169.485 1053.57 172.73 1050.82 175.477C1048.08 178.098 1044.89 179.409 1041.27 179.409ZM1047.52 190.359L1030.48 286.359H1013.44L1030.48 190.359H1047.52Z" fill="black" style="fill:black;fill-opacity:1;"/>
<path d="M1001.27 331.409C998.527 331.409 996.217 330.535 994.345 328.787C992.597 326.915 991.724 324.606 991.724 321.859C991.724 318.115 993.097 314.932 995.843 312.31C998.589 309.564 1001.77 308.191 1005.39 308.191C1008.26 308.191 1010.57 309.065 1012.32 310.812C1014.07 312.56 1014.94 314.869 1014.94 317.74C1014.94 321.485 1013.57 324.73 1010.82 327.477C1008.08 330.098 1004.89 331.409 1001.27 331.409ZM1007.52 342.359L990.481 438.359H973.442L990.481 342.359H1007.52Z" fill="black" style="fill:black;fill-opacity:1;"/>
<path d="M609.262 1.68515L560.018 132.191H540.358L491.114 1.68515H509.276L550.282 114.216L591.287 1.68515H609.262Z" fill="black" style="fill:black;fill-opacity:1;"/>
<path d="M428.763 132.191L397.682 78.8277H377.085V132.191H360.046V1.68515H402.175C412.037 1.68515 420.338 3.37031 427.078 6.74062C433.944 10.1109 439.061 14.6671 442.432 20.4091C445.802 26.1511 447.487 32.7045 447.487 40.0692C447.487 49.0567 444.866 56.9831 439.623 63.8486C434.505 70.714 426.766 75.2702 416.405 77.517L449.172 132.191H428.763ZM377.085 65.1593H402.175C411.412 65.1593 418.34 62.9124 422.959 58.4186C427.577 53.8001 429.887 47.6836 429.887 40.0692C429.887 32.33 427.577 26.3383 422.959 22.0942C418.465 17.8501 411.537 15.7281 402.175 15.7281H377.085V65.1593Z" fill="black" style="fill:black;fill-opacity:1;"/>
<path d="M168.138 133.502C156.03 133.502 144.983 130.693 134.997 125.076C125.01 119.334 117.084 111.407 111.217 101.296C105.475 91.0607 102.604 79.5767 102.604 66.8444C102.604 54.1121 105.475 42.6905 111.217 32.5796C117.084 22.3439 125.01 14.4174 134.997 8.80023C144.983 3.05823 156.03 0.187225 168.138 0.187225C180.371 0.187225 191.48 3.05823 201.467 8.80023C211.453 14.4174 219.317 22.2815 225.059 32.3924C230.801 42.5033 233.672 53.9873 233.672 66.8444C233.672 79.7015 230.801 91.1855 225.059 101.296C219.317 111.407 211.453 119.334 201.467 125.076C191.48 130.693 180.371 133.502 168.138 133.502ZM168.138 118.71C177.25 118.71 185.426 116.588 192.666 112.344C200.031 108.099 205.773 102.045 209.892 94.1813C214.136 86.3173 216.258 77.205 216.258 66.8444C216.258 56.359 214.136 47.2467 209.892 39.5075C205.773 31.6434 200.093 25.5894 192.854 21.3453C185.614 17.1012 177.375 14.9791 168.138 14.9791C158.901 14.9791 150.662 17.1012 143.422 21.3453C136.182 25.5894 130.44 31.6434 126.196 39.5075C122.077 47.2467 120.017 56.359 120.017 66.8444C120.017 77.205 122.077 86.3173 126.196 94.1813C130.44 102.045 136.182 108.099 143.422 112.344C150.787 116.588 159.026 118.71 168.138 118.71Z" fill="black" style="fill:black;fill-opacity:1;"/>
<path d="M102.233 1.68515L59.7293 82.947V132.191H42.6906V82.947L0 1.68515H18.9112L51.1163 67.7806L83.3215 1.68515H102.233Z" fill="black" style="fill:black;fill-opacity:1;"/>
</svg>
