<svg width="60" height="60" viewBox="0 0 60 60" fill="none" xmlns="http://www.w3.org/2000/svg">
<path opacity="0.3" d="M46.6074 0C53.9993 0 59.9998 6.01179 60 13.3916V46.6074C60 53.9994 53.9994 60 46.6074 60H13.3916C6.01179 59.9998 0 53.9993 0 46.6074V13.3916C0.000184062 6.0119 6.0119 0.000184057 13.3916 0H46.6074ZM30 10.5723C19.284 10.5723 10.5596 19.284 10.5596 30C10.5596 40.7159 19.2841 49.4395 30 49.4395C40.7158 49.4394 49.4394 40.7158 49.4395 30C49.4395 19.2841 40.7159 10.5723 30 10.5723ZM30 18.9961C36.072 18.9961 41.0156 23.928 41.0156 30C41.0154 36.0718 36.0719 41.0156 30 41.0156C23.9282 41.0156 18.9963 36.0718 18.9961 30C18.9961 23.928 23.928 18.9961 30 18.9961ZM49.8477 5.87988C47.5797 5.87995 45.7314 7.72815 45.7314 9.99609C45.7315 12.264 47.5798 14.0995 49.8477 14.0996C52.1156 14.0996 53.9638 12.264 53.9639 9.99609C53.9639 7.7281 52.1156 5.87988 49.8477 5.87988Z" fill="black" style="fill:black;fill-opacity:1;"/>
</svg>
