<svg width="60" height="60" viewBox="0 0 60 60" fill="none" xmlns="http://www.w3.org/2000/svg">
<path opacity="0.3" d="M51.8182 0H8.18182C6.01187 0 3.93079 0.86201 2.3964 2.3964C0.86201 3.93079 0 6.01187 0 8.18182L0 51.8182C0 53.9881 0.86201 56.0692 2.3964 57.6036C3.93079 59.138 6.01187 60 8.18182 60H51.8182C53.9881 60 56.0692 59.138 57.6036 57.6036C59.138 56.0692 60 53.9881 60 51.8182V8.18182C60 6.01187 59.138 3.93079 57.6036 2.3964C56.0692 0.86201 53.9881 0 51.8182 0ZM20.4545 47.4818C20.455 47.6482 20.4226 47.813 20.3593 47.9669C20.2959 48.1207 20.2028 48.2605 20.0853 48.3784C19.9678 48.4962 19.8282 48.5896 19.6746 48.6534C19.5209 48.7172 19.3562 48.75 19.1898 48.75H13.8C13.6333 48.7505 13.4682 48.718 13.3142 48.6544C13.1601 48.5908 13.0201 48.4974 12.9023 48.3796C12.7844 48.2617 12.691 48.1217 12.6274 47.9677C12.5639 47.8136 12.5314 47.6485 12.5318 47.4818V24.8864C12.5318 24.55 12.6654 24.2275 12.9033 23.9896C13.1411 23.7518 13.4637 23.6182 13.8 23.6182H19.1898C19.5255 23.6191 19.8472 23.7531 20.0843 23.9908C20.3214 24.2286 20.4545 24.5506 20.4545 24.8864V47.4818ZM16.4932 21.4773C15.4818 21.4773 14.4931 21.1774 13.6522 20.6155C12.8113 20.0536 12.1558 19.2549 11.7688 18.3205C11.3818 17.3861 11.2805 16.358 11.4778 15.366C11.6751 14.3741 12.1621 13.4629 12.8773 12.7477C13.5925 12.0326 14.5036 11.5456 15.4956 11.3483C16.4875 11.1509 17.5157 11.2522 18.4501 11.6393C19.3845 12.0263 20.1831 12.6817 20.745 13.5227C21.3069 14.3636 21.6068 15.3523 21.6068 16.3636C21.6068 17.7199 21.0681 19.0205 20.1091 19.9795C19.1501 20.9385 17.8494 21.4773 16.4932 21.4773ZM48.6273 47.5705C48.6277 47.7237 48.5979 47.8755 48.5394 48.0172C48.481 48.1588 48.3951 48.2875 48.2868 48.3959C48.1784 48.5042 48.0497 48.5901 47.9081 48.6485C47.7664 48.707 47.6146 48.7368 47.4614 48.7364H41.6659C41.5127 48.7368 41.3609 48.707 41.2192 48.6485C41.0775 48.5901 40.9488 48.5042 40.8405 48.3959C40.7321 48.2875 40.6463 48.1588 40.5878 48.0172C40.5294 47.8755 40.4995 47.7237 40.5 47.5705V36.9852C40.5 35.4034 40.9636 30.058 36.3648 30.058C32.8023 30.058 32.0761 33.7159 31.933 35.3591V47.5841C31.933 47.8904 31.8125 48.1844 31.5975 48.4025C31.3825 48.6207 31.0903 48.7455 30.7841 48.75H25.1864C25.0334 48.75 24.882 48.7198 24.7407 48.6612C24.5994 48.6026 24.4711 48.5166 24.3631 48.4083C24.2552 48.3 24.1696 48.1714 24.1114 48.03C24.0532 47.8886 24.0234 47.737 24.0239 47.5841V24.7875C24.0234 24.6346 24.0532 24.483 24.1114 24.3416C24.1696 24.2001 24.2552 24.0716 24.3631 23.9633C24.4711 23.855 24.5994 23.769 24.7407 23.7104C24.882 23.6518 25.0334 23.6216 25.1864 23.6216H30.7841C31.0933 23.6216 31.3899 23.7444 31.6085 23.9631C31.8272 24.1817 31.95 24.4783 31.95 24.7875V26.758C33.2727 24.7705 35.233 23.2432 39.4159 23.2432C48.6818 23.2432 48.6205 31.8955 48.6205 36.6477L48.6273 47.5705Z" fill="black" style="fill:black;fill-opacity:1;"/>
</svg>
