<svg width="122" height="30" viewBox="0 0 122 30" fill="none" xmlns="http://www.w3.org/2000/svg">
<path d="M18 19L22 15L18 11" stroke="black" style="stroke:black;stroke-opacity:1;" stroke-width="2" stroke-linecap="round" stroke-linejoin="round"/>
<path d="M6 11L2 15L6 19" stroke="black" style="stroke:black;stroke-opacity:1;" stroke-width="2" stroke-linecap="round" stroke-linejoin="round"/>
<path d="M14.5 7L9.5 23" stroke="black" style="stroke:black;stroke-opacity:1;" stroke-width="2" stroke-linecap="round" stroke-linejoin="round"/>
<path d="M34.66 16.46C34.66 15.3133 34.8933 14.3133 35.36 13.46C35.8267 12.5933 36.4733 11.9267 37.3 11.46C38.1267 10.98 39.0733 10.74 40.14 10.74C41.5133 10.74 42.6467 11.0867 43.54 11.78C44.4467 12.46 45.0533 13.42 45.36 14.66H42.34C42.18 14.18 41.9067 13.8067 41.52 13.54C41.1467 13.26 40.68 13.12 40.12 13.12C39.32 13.12 38.6867 13.4133 38.22 14C37.7533 14.5733 37.52 15.3933 37.52 16.46C37.52 17.5133 37.7533 18.3333 38.22 18.92C38.6867 19.4933 39.32 19.78 40.12 19.78C41.2533 19.78 41.9933 19.2733 42.34 18.26H45.36C45.0533 19.46 44.4467 20.4133 43.54 21.12C42.6333 21.8267 41.5 22.18 40.14 22.18C39.0733 22.18 38.1267 21.9467 37.3 21.48C36.4733 21 35.8267 20.3333 35.36 19.48C34.8933 18.6133 34.66 17.6067 34.66 16.46ZM52.3313 22.18C51.2646 22.18 50.3046 21.9467 49.4513 21.48C48.5979 21 47.9246 20.3267 47.4313 19.46C46.9513 18.5933 46.7113 17.5933 46.7113 16.46C46.7113 15.3267 46.9579 14.3267 47.4513 13.46C47.9579 12.5933 48.6446 11.9267 49.5113 11.46C50.3779 10.98 51.3446 10.74 52.4113 10.74C53.4779 10.74 54.4446 10.98 55.3113 11.46C56.1779 11.9267 56.8579 12.5933 57.3513 13.46C57.8579 14.3267 58.1113 15.3267 58.1113 16.46C58.1113 17.5933 57.8513 18.5933 57.3312 19.46C56.8246 20.3267 56.1313 21 55.2513 21.48C54.3846 21.9467 53.4113 22.18 52.3313 22.18ZM52.3313 19.74C52.8379 19.74 53.3113 19.62 53.7513 19.38C54.2046 19.1267 54.5646 18.7533 54.8313 18.26C55.0979 17.7667 55.2313 17.1667 55.2313 16.46C55.2313 15.4067 54.9513 14.6 54.3913 14.04C53.8446 13.4667 53.1713 13.18 52.3713 13.18C51.5713 13.18 50.8979 13.4667 50.3513 14.04C49.8179 14.6 49.5513 15.4067 49.5513 16.46C49.5513 17.5133 49.8113 18.3267 50.3313 18.9C50.8646 19.46 51.5313 19.74 52.3313 19.74ZM59.4452 16.42C59.4452 15.3 59.6652 14.3067 60.1052 13.44C60.5585 12.5733 61.1718 11.9067 61.9452 11.44C62.7185 10.9733 63.5785 10.74 64.5252 10.74C65.2452 10.74 65.9318 10.9 66.5852 11.22C67.2385 11.5267 67.7585 11.94 68.1452 12.46V7.2H70.9852V22H68.1452V20.36C67.7985 20.9067 67.3118 21.3467 66.6852 21.68C66.0585 22.0133 65.3318 22.18 64.5052 22.18C63.5718 22.18 62.7185 21.94 61.9452 21.46C61.1718 20.98 60.5585 20.3067 60.1052 19.44C59.6652 18.56 59.4452 17.5533 59.4452 16.42ZM68.1652 16.46C68.1652 15.78 68.0318 15.2 67.7652 14.72C67.4985 14.2267 67.1385 13.8533 66.6852 13.6C66.2318 13.3333 65.7452 13.2 65.2252 13.2C64.7052 13.2 64.2252 13.3267 63.7852 13.58C63.3452 13.8333 62.9852 14.2067 62.7052 14.7C62.4385 15.18 62.3052 15.7533 62.3052 16.42C62.3052 17.0867 62.4385 17.6733 62.7052 18.18C62.9852 18.6733 63.3452 19.0533 63.7852 19.32C64.2385 19.5867 64.7185 19.72 65.2252 19.72C65.7452 19.72 66.2318 19.5933 66.6852 19.34C67.1385 19.0733 67.4985 18.7 67.7652 18.22C68.0318 17.7267 68.1652 17.14 68.1652 16.46ZM84.0198 16.22C84.0198 16.62 83.9932 16.98 83.9398 17.3H75.8398C75.9065 18.1 76.1865 18.7267 76.6798 19.18C77.1732 19.6333 77.7798 19.86 78.4998 19.86C79.5398 19.86 80.2798 19.4133 80.7198 18.52H83.7398C83.4198 19.5867 82.8065 20.4667 81.8998 21.16C80.9932 21.84 79.8798 22.18 78.5598 22.18C77.4932 22.18 76.5332 21.9467 75.6798 21.48C74.8398 21 74.1798 20.3267 73.6998 19.46C73.2332 18.5933 72.9998 17.5933 72.9998 16.46C72.9998 15.3133 73.2332 14.3067 73.6998 13.44C74.1665 12.5733 74.8198 11.9067 75.6598 11.44C76.4998 10.9733 77.4665 10.74 78.5598 10.74C79.6132 10.74 80.5532 10.9667 81.3798 11.42C82.2198 11.8733 82.8665 12.52 83.3198 13.36C83.7865 14.1867 84.0198 15.14 84.0198 16.22ZM81.1198 15.42C81.1065 14.7 80.8465 14.1267 80.3398 13.7C79.8332 13.26 79.2132 13.04 78.4798 13.04C77.7865 13.04 77.1998 13.2533 76.7198 13.68C76.2532 14.0933 75.9665 14.6733 75.8598 15.42H81.1198ZM90.3892 19.16V16.96L96.9292 7.6H100.189V16.72H101.949V19.16H100.189V22H97.3892V19.16H90.3892ZM97.5692 10.6L93.4692 16.72H97.5692V10.6ZM103.392 10V7.42H108.212V22H105.332V10H103.392ZM111.858 18.84C113.138 17.7733 114.158 16.8867 114.918 16.18C115.678 15.46 116.311 14.7133 116.818 13.94C117.325 13.1667 117.578 12.4067 117.578 11.66C117.578 10.98 117.418 10.4467 117.098 10.06C116.778 9.67333 116.285 9.48 115.618 9.48C114.951 9.48 114.438 9.70667 114.078 10.16C113.718 10.6 113.531 11.2067 113.518 11.98H110.798C110.851 10.38 111.325 9.16667 112.218 8.34C113.125 7.51333 114.271 7.1 115.658 7.1C117.178 7.1 118.345 7.50667 119.158 8.32C119.971 9.12 120.378 10.18 120.378 11.5C120.378 12.54 120.098 13.5333 119.538 14.48C118.978 15.4267 118.338 16.2533 117.618 16.96C116.898 17.6533 115.958 18.4933 114.798 19.48H120.698V21.8H110.818V19.72L111.858 18.84Z" fill="black" style="fill:black;fill-opacity:1;"/>
</svg>
